<svg width="136" height="44" viewBox="0 0 136 44" fill="none" xmlns="http://www.w3.org/2000/svg">
<path d="M60.266 16.0622C60.4767 16.2753 60.7287 16.443 61.0067 16.5549C61.2846 16.6668 61.5825 16.7206 61.882 16.7129C62.1813 16.7205 62.479 16.6666 62.7567 16.5547C63.0344 16.4428 63.2863 16.2752 63.4967 16.0622C63.7075 15.8495 63.8738 15.5969 63.986 15.3193C64.0982 15.0416 64.1539 14.7444 64.15 14.4449C64.1574 14.1454 64.1032 13.8475 63.9909 13.5698C63.8785 13.2921 63.7103 13.0403 63.4967 12.8302C63.2905 12.6096 63.0402 12.4349 62.762 12.3175C62.4838 12.2001 62.1839 12.1427 61.882 12.1489C61.5799 12.1425 61.2798 12.1998 61.0014 12.3172C60.7229 12.4346 60.4724 12.6094 60.266 12.8302C60.0526 13.0404 59.8846 13.2922 59.7725 13.5699C59.6603 13.8477 59.6064 14.1455 59.614 14.4449C59.6099 14.7443 59.6654 15.0415 59.7773 15.3192C59.8893 15.5968 60.0554 15.8494 60.266 16.0622Z" fill="white"/>
<path d="M59.8666 18.2689C59.828 18.3108 59.7982 18.36 59.7789 18.4136C59.7597 18.4672 59.7514 18.5241 59.7546 18.5809V31.6209C59.7514 31.6778 59.7596 31.7347 59.7788 31.7883C59.7981 31.8419 59.8279 31.8911 59.8666 31.9329C59.9082 31.972 59.9573 32.0021 60.011 32.0216C60.0646 32.0411 60.1216 32.0495 60.1786 32.0463H63.5799C63.6369 32.0495 63.6939 32.0411 63.7476 32.0216C63.8012 32.0021 63.8503 31.972 63.8919 31.9329C63.9311 31.8914 63.9613 31.8423 63.9808 31.7886C64.0003 31.735 64.0086 31.6779 64.0053 31.6209V18.5809C64.0085 18.5239 64.0001 18.4669 63.9806 18.4133C63.9611 18.3597 63.931 18.3105 63.8919 18.2689C63.8501 18.2303 63.8009 18.2005 63.7473 18.1813C63.6937 18.162 63.6368 18.1537 63.5799 18.1569H60.1813C60.1244 18.1537 60.0675 18.162 60.0139 18.1813C59.9603 18.2005 59.9111 18.2303 59.8693 18.2689" fill="white"/>
<path fill-rule="evenodd" clip-rule="evenodd" d="M95.9346 22.1134C96.4767 21.6927 97.1474 21.4723 97.8333 21.4894C98.5021 21.4724 99.1551 21.6936 99.676 22.1134C100.187 22.5098 100.508 23.0951 100.64 23.8694H94.9133C95.0653 23.096 95.4057 22.5107 95.9346 22.1134ZM104.212 26.1667C104.345 25.8831 104.411 25.4298 104.41 24.8067C104.422 23.6016 104.14 22.4116 103.588 21.34C103.059 20.3025 102.255 19.43 101.264 18.8174C100.223 18.1842 99.0234 17.8605 97.8053 17.884C96.5395 17.8687 95.294 18.2023 94.2053 18.848C93.1377 19.4618 92.2559 20.3528 91.6533 21.4267C91.0451 22.5388 90.7329 23.7886 90.7466 25.056C90.7322 26.3265 91.0542 27.5782 91.68 28.684C92.2964 29.7736 93.1974 30.675 94.2866 31.292C95.4566 31.9445 96.7778 32.2775 98.1173 32.2574C99.0767 32.2664 100.029 32.0852 100.918 31.724C101.797 31.3519 102.597 30.8126 103.271 30.136C103.321 30.0936 103.361 30.0416 103.391 29.9832C103.42 29.9249 103.437 29.8612 103.442 29.796C103.443 29.7435 103.433 29.6913 103.414 29.6425C103.394 29.5937 103.365 29.5493 103.328 29.512L101.862 28.096C101.784 28.0008 101.672 27.9395 101.55 27.9254C101.435 27.9252 101.324 27.9653 101.236 28.0387C100.815 28.3168 100.357 28.5361 99.876 28.6907C99.4411 28.8067 98.9927 28.8641 98.5426 28.8614C97.5986 28.8614 96.8146 28.6725 96.1906 28.2947C95.5812 27.8905 95.1461 27.2717 94.972 26.5614H103.391C103.807 26.5614 104.082 26.428 104.214 26.1614" fill="white"/>
<path fill-rule="evenodd" clip-rule="evenodd" d="M112.566 21.4918C111.88 21.475 111.21 21.6954 110.668 22.1158C110.134 22.5122 109.794 23.0976 109.648 23.8718H115.373C115.241 23.0985 114.919 22.5131 114.409 22.1158C113.888 21.696 113.235 21.4749 112.566 21.4918ZM119.144 24.8091C119.144 25.4313 119.077 25.8847 118.945 26.1691C118.812 26.4358 118.538 26.5691 118.124 26.5691H109.705C109.878 27.2794 110.313 27.8983 110.922 28.3025C111.545 28.6794 112.329 28.8682 113.276 28.8691C113.726 28.872 114.174 28.8146 114.609 28.6985C115.09 28.5436 115.548 28.3242 115.97 28.0465C116.058 27.9729 116.168 27.9327 116.282 27.9331C116.405 27.947 116.517 28.0083 116.594 28.1038L118.061 29.5198C118.098 29.5569 118.128 29.6012 118.147 29.6501C118.167 29.6989 118.176 29.7512 118.174 29.8038C118.17 29.869 118.153 29.9328 118.124 29.9912C118.094 30.0496 118.054 30.1015 118.004 30.1438C117.331 30.8178 116.534 31.3553 115.657 31.7265C114.768 32.0874 113.816 32.2687 112.857 32.2598C111.519 32.2797 110.198 31.9472 109.029 31.2958C107.94 30.6781 107.039 29.7768 106.422 28.6878C105.797 27.5817 105.475 26.3302 105.489 25.0598C105.475 23.7923 105.787 22.5426 106.396 21.4305C106.995 20.3597 107.872 19.4704 108.934 18.8558C110.023 18.21 111.269 17.8765 112.534 17.8918C113.752 17.8681 114.952 18.1919 115.993 18.8251C116.984 19.4378 117.787 20.3103 118.317 21.3478C118.869 22.4191 119.152 23.6092 119.14 24.8145" fill="white"/>
<path fill-rule="evenodd" clip-rule="evenodd" d="M129.817 27.4737C129.23 28.0791 128.484 28.3813 127.577 28.3804C126.652 28.3804 125.896 28.0782 125.31 27.4737C124.744 26.8684 124.46 26.084 124.46 25.1204C124.46 24.1764 124.743 23.3831 125.31 22.7404C125.596 22.425 125.946 22.1754 126.337 22.009C126.729 21.8425 127.152 21.7632 127.577 21.7764C127.995 21.7639 128.411 21.8406 128.798 22.0015C129.184 22.1625 129.531 22.4039 129.817 22.7097C130.42 23.332 130.723 24.1351 130.724 25.1191C130.724 26.0835 130.421 26.868 129.817 27.4724V27.4737ZM131.517 18.8551C130.49 18.2106 129.3 17.8759 128.088 17.8911C126.463 17.8911 125.129 18.5524 124.088 19.8751L123.945 18.6004C123.908 18.3169 123.766 18.1751 123.52 18.1751H120.632C120.575 18.1719 120.518 18.1802 120.464 18.1997C120.41 18.2192 120.361 18.2494 120.32 18.2884C120.281 18.3301 120.251 18.3793 120.232 18.4329C120.212 18.4866 120.204 18.5435 120.208 18.6004V37.0257C120.204 37.0828 120.213 37.1399 120.232 37.1937C120.251 37.2475 120.281 37.2969 120.32 37.3391C120.361 37.3779 120.41 37.4079 120.464 37.4273C120.518 37.4468 120.575 37.4553 120.632 37.4524H124.033C124.09 37.4555 124.147 37.4471 124.2 37.4276C124.254 37.4082 124.303 37.378 124.345 37.3391C124.384 37.2972 124.414 37.2479 124.434 37.194C124.453 37.1402 124.461 37.0829 124.458 37.0257V30.8191C125.385 31.78 126.595 32.2604 128.088 32.2604C129.296 32.277 130.484 31.9536 131.517 31.3271C132.54 30.7021 133.373 29.8101 133.928 28.7471C134.516 27.639 134.818 26.4015 134.806 25.1471C134.822 23.8743 134.52 22.6177 133.928 21.4911C133.386 20.4046 132.551 19.4915 131.517 18.8551Z" fill="white"/>
<path d="M74.2868 18.1523C74.3437 18.1492 74.4006 18.1575 74.4542 18.1767C74.5078 18.1959 74.557 18.2257 74.5989 18.2644C74.6379 18.306 74.6681 18.3551 74.6875 18.4087C74.707 18.4624 74.7154 18.5194 74.7122 18.5764V21.1563C74.7155 21.2131 74.7072 21.27 74.6877 21.3234C74.6682 21.3769 74.638 21.4257 74.5989 21.467C74.5575 21.5065 74.5084 21.537 74.4548 21.5568C74.4011 21.5765 74.3439 21.585 74.2868 21.5817H72.0202V31.6164C72.0233 31.6734 72.0147 31.7305 71.995 31.7842C71.9753 31.8378 71.9448 31.8869 71.9055 31.9283C71.8639 31.9674 71.8148 31.9976 71.7611 32.017C71.7075 32.0365 71.6505 32.0449 71.5935 32.0417H68.1922C68.1352 32.0449 68.0782 32.0365 68.0245 32.017C67.9709 31.9976 67.9218 31.9674 67.8802 31.9283C67.841 31.8868 67.8108 31.8377 67.7913 31.7841C67.7718 31.7304 67.7635 31.6733 67.7668 31.6164V21.5884H65.5002C65.4431 21.5916 65.3859 21.5831 65.3323 21.5634C65.2786 21.5437 65.2296 21.5132 65.1882 21.4737C65.1493 21.4322 65.1192 21.3833 65.0998 21.3299C65.0803 21.2765 65.0718 21.2198 65.0748 21.163V18.583C65.0719 18.5261 65.0805 18.4691 65.0999 18.4155C65.1194 18.362 65.1494 18.3128 65.1882 18.271C65.23 18.2324 65.2792 18.2026 65.3328 18.1834C65.3864 18.1641 65.4433 18.1559 65.5002 18.159H67.7668V14.331C67.7636 14.274 67.772 14.217 67.7915 14.1634C67.811 14.1098 67.8411 14.0606 67.8802 14.019C67.9219 13.9802 67.971 13.9502 68.0247 13.9309C68.0783 13.9117 68.1353 13.9035 68.1922 13.907H71.5988C71.6557 13.9035 71.7127 13.9117 71.7664 13.9309C71.82 13.9502 71.8692 13.9802 71.9109 14.019C71.9501 14.0605 71.9805 14.1096 72.0002 14.1632C72.02 14.2169 72.0286 14.274 72.0255 14.331V18.159L74.2868 18.1523Z" fill="white"/>
<path fill-rule="evenodd" clip-rule="evenodd" d="M51.4438 28.1625C52.3131 28.1625 53.0029 27.9643 53.5131 27.5678C54.0233 27.1714 54.2784 26.5758 54.2784 25.7812C54.2784 25.006 54.0233 24.4394 53.5131 24.0812C53.002 23.7025 52.3122 23.5136 51.4438 23.5145H48.2664V28.1625H51.4438ZM53.0878 17.8958C53.0878 16.6869 52.3411 16.082 50.8478 16.0812H48.2664V19.8798H50.8451C51.5438 19.8798 52.0931 19.7198 52.4891 19.3985C52.8864 19.0572 53.0851 18.5563 53.0851 17.8958H53.0878ZM54.7851 21.4398C55.8477 21.7268 56.7972 22.3315 57.5064 23.1732C58.2797 24.0362 58.6954 25.1613 58.6691 26.3198C58.6691 28.2292 58.0549 29.6656 56.8264 30.6292C55.6166 31.5732 53.7651 32.0456 51.2718 32.0465H44.2998C44.2428 32.0497 44.1858 32.0413 44.1321 32.0218C44.0785 32.0024 44.0294 31.9722 43.9878 31.9332C43.9488 31.8915 43.9188 31.8424 43.8996 31.7887C43.8803 31.7351 43.8722 31.678 43.8758 31.6212V12.6292C43.8723 12.5723 43.8804 12.5153 43.8997 12.4616C43.9189 12.408 43.9489 12.3588 43.9878 12.3172C44.0294 12.2781 44.0785 12.2479 44.1321 12.2285C44.1858 12.209 44.2428 12.2006 44.2998 12.2038H51.2451C52.4895 12.2038 53.5562 12.4305 54.4451 12.8838C55.2928 13.2827 56.0031 13.9239 56.4864 14.7265C56.964 15.5117 57.2112 16.4155 57.1998 17.3345C57.2202 18.2453 56.9736 19.1422 56.4904 19.9145C56.0371 20.6505 55.47 21.1607 54.7891 21.4452" fill="white"/>
<path d="M92.305 31.8954C92.3059 31.8033 92.2759 31.7137 92.2197 31.6407L84.3277 21.0007L91.945 12.8007C92.0225 12.7366 92.0729 12.6457 92.0863 12.5461C92.0868 12.5094 92.0762 12.4734 92.056 12.4427C92.0358 12.4121 92.0069 12.3882 91.973 12.3741C91.938 12.3439 91.8973 12.3209 91.8534 12.3065C91.8095 12.2921 91.7631 12.2865 91.717 12.2901H87.8677C87.7756 12.2896 87.6846 12.3097 87.6013 12.3489C87.518 12.3881 87.4446 12.4455 87.3863 12.5167L80.0823 20.4341V12.7167C80.0855 12.6597 80.0769 12.6026 80.0572 12.5489C80.0375 12.4953 80.007 12.4462 79.9677 12.4047C79.9265 12.3654 79.8776 12.335 79.8242 12.3153C79.7708 12.2956 79.7139 12.287 79.657 12.2901H76.2503C76.1933 12.2868 76.1361 12.2953 76.0824 12.315C76.0288 12.3347 75.9797 12.3653 75.9383 12.4047C75.8992 12.4463 75.8689 12.4954 75.8494 12.549C75.8299 12.6027 75.8216 12.6598 75.825 12.7167V31.7207C75.8216 31.7777 75.8298 31.8348 75.8493 31.8885C75.8688 31.9422 75.8991 31.9912 75.9383 32.0327C75.9798 32.072 76.0289 32.1023 76.0826 32.1218C76.1363 32.1413 76.1933 32.1495 76.2503 32.1461H79.6517C79.7085 32.1494 79.7653 32.1411 79.8188 32.1216C79.8722 32.1021 79.9211 32.0719 79.9623 32.0327C80.0018 31.9914 80.0324 31.9423 80.0521 31.8886C80.0718 31.835 80.0803 31.7778 80.077 31.7207V25.5874L81.749 23.7741L87.7983 31.8901C87.8534 31.9735 87.9295 32.041 88.0189 32.0857C88.1083 32.1304 88.2079 32.1507 88.3077 32.1447H91.965C92.1917 32.1447 92.305 32.0607 92.305 31.8901" fill="white"/>
<path fill-rule="evenodd" clip-rule="evenodd" d="M35.3704 13.6159V15.5559C35.3705 15.7432 35.3212 15.9272 35.2276 16.0894C35.1339 16.2516 34.9993 16.3863 34.8371 16.4799L28.5864 20.0879L34.1691 23.3012C34.5342 23.512 34.8373 23.8152 35.0479 24.1804C35.2586 24.5455 35.3694 24.9597 35.3691 25.3812V30.5506C35.3696 30.9723 35.2589 31.3868 35.0483 31.7522C34.8376 32.1176 34.5343 32.421 34.1691 32.6319L19.4824 41.0572C19.1176 41.2679 18.7037 41.3788 18.2824 41.3788C17.8611 41.3788 17.4473 41.2679 17.0824 41.0572L12.2824 38.2826C12.2013 38.2358 12.1339 38.1684 12.0871 38.0873C12.0402 38.0062 12.0155 37.9142 12.0155 37.8206C12.0155 37.7269 12.0402 37.6349 12.0871 37.5538C12.1339 37.4727 12.2013 37.4054 12.2824 37.3586L28.1491 28.2266C28.1898 28.2032 28.2236 28.1695 28.2472 28.1289C28.2707 28.0883 28.2831 28.0422 28.2831 27.9952C28.2831 27.9483 28.2707 27.9022 28.2472 27.8616C28.2236 27.8209 28.1898 27.7873 28.1491 27.7639L22.2584 24.3612C22.0963 24.2676 21.9123 24.2183 21.7251 24.2183C21.5378 24.2183 21.3539 24.2676 21.1918 24.3612L5.06638 33.6439C4.94476 33.7141 4.8068 33.7511 4.66637 33.7511C4.52594 33.7511 4.38799 33.7141 4.26638 33.6439L2.44238 32.5986C2.07523 32.3885 1.77013 32.0851 1.55799 31.7191C1.34585 31.3531 1.23421 30.9376 1.23438 30.5146V28.3986C1.23429 28.258 1.27121 28.12 1.34143 27.9983C1.41165 27.8766 1.51269 27.7755 1.63438 27.7052L24.7464 14.4292C24.7871 14.4059 24.821 14.3722 24.8445 14.3316C24.868 14.291 24.8804 14.2448 24.8804 14.1979C24.8804 14.151 24.868 14.1048 24.8445 14.0642C24.821 14.0236 24.7871 13.9899 24.7464 13.9666L18.8464 10.5532C18.6843 10.4596 18.5003 10.4103 18.3131 10.4103C18.1258 10.4103 17.9419 10.4596 17.7798 10.5532L2.04638 19.6066C1.96524 19.6534 1.8732 19.6781 1.77952 19.678C1.68583 19.678 1.59381 19.6533 1.51271 19.6064C1.4316 19.5595 1.36429 19.492 1.31754 19.4108C1.27078 19.3297 1.24624 19.2376 1.24638 19.1439V13.5906C1.24655 13.1681 1.35821 12.7532 1.57008 12.3878C1.78196 12.0223 2.08654 11.7193 2.45305 11.5092L17.1318 3.08525C17.4958 2.87584 17.9084 2.76562 18.3284 2.76562C18.7484 2.76562 19.161 2.87584 19.5251 3.08525L34.1758 11.5346C34.54 11.7461 34.8422 12.0498 35.0519 12.4152C35.2616 12.7805 35.3715 13.1946 35.3704 13.6159Z" fill="white"/>
</svg>
