<svg width="122" height="40" viewBox="0 0 122 40" fill="none" xmlns="http://www.w3.org/2000/svg">
<path d="M41.8821 19.389C41.8497 18.5009 41.9981 17.6154 42.3185 16.7857C42.6389 15.956 43.1247 15.1993 43.7466 14.561C44.3685 13.9227 45.1137 13.4159 45.9375 13.0712C46.7614 12.7264 47.6468 12.5508 48.5406 12.5548C51.9084 12.5548 53.9017 14.5196 54.5031 16.8262L52.3896 17.5352C52.2036 16.6753 51.712 15.9108 51.0051 15.382C50.2981 14.8532 49.4231 14.5956 48.5406 14.6563C46.3583 14.6563 44.1761 16.2367 44.1761 19.4317C44.1761 22.6267 46.3068 24.1473 48.5663 24.1473C49.4537 24.1729 50.3241 23.9014 51.0377 23.3762C51.7513 22.851 52.2667 22.1027 52.5013 21.2513L54.5546 21.9177C54.2031 23.2175 53.4148 24.3585 52.3207 25.1511C51.2266 25.9437 49.8926 26.3401 48.5406 26.2744C47.6387 26.2912 46.7431 26.1226 45.9099 25.779C45.0767 25.4354 44.3239 24.9244 43.6988 24.2779C43.0736 23.6314 42.5895 22.8634 42.2769 22.0221C41.9643 21.1808 41.8299 20.2844 41.8821 19.389Z" fill="white"/>
<path d="M58.6298 25.9612H56.4648V12.5234H58.6298V17.7943C58.9452 17.4235 59.3409 17.1287 59.7873 16.9319C60.2338 16.7351 60.7193 16.6415 61.2073 16.6581C63.4497 16.6581 64.5322 18.2556 64.5322 20.2461V25.9612H62.4273V20.6134C62.4668 20.3533 62.4468 20.0876 62.3688 19.8362C62.2908 19.5848 62.1569 19.3541 61.977 19.1612C61.797 18.9684 61.5757 18.8183 61.3294 18.7221C61.0831 18.626 60.8182 18.5862 60.5543 18.6059C60.2925 18.6061 60.0336 18.6604 59.7939 18.7653C59.5543 18.8703 59.3392 19.0236 59.1623 19.2156C58.9854 19.4075 58.8506 19.6339 58.7663 19.8805C58.682 20.127 58.6502 20.3882 58.6728 20.6476L58.6298 25.9612Z" fill="white"/>
<path d="M69.3665 20.7839L71.6948 20.4251C72.2189 20.3567 72.3649 20.0919 72.3649 19.7758C72.3649 19.0155 71.8494 18.4004 70.6466 18.4004C70.4147 18.3806 70.1811 18.4079 69.9601 18.4805C69.739 18.5532 69.5351 18.6697 69.3608 18.8231C69.1864 18.9765 69.0453 19.1635 68.9458 19.3728C68.8464 19.5821 68.7907 19.8093 68.7823 20.0406L66.8062 19.5964C66.9694 18.0331 68.3956 16.6406 70.6294 16.6406C73.4303 16.6406 74.4956 18.221 74.4956 20.0577V24.5427C74.4907 25.0291 74.528 25.515 74.6073 25.9949H72.5883C72.519 25.6146 72.4902 25.228 72.5024 24.8417C72.2008 25.3013 71.7838 25.6747 71.2926 25.9249C70.8013 26.1751 70.2529 26.2935 69.7015 26.2683C69.3172 26.2997 68.9303 26.2533 68.5645 26.1319C68.1987 26.0105 67.8614 25.8165 67.5731 25.5618C67.2848 25.307 67.0514 24.9968 66.8871 24.6499C66.7228 24.3029 66.631 23.9264 66.6172 23.5432C66.6172 21.8944 67.8114 21.006 69.3665 20.7839ZM72.3649 22.2361V21.8261L69.9937 22.1763C69.6714 22.1873 69.3658 22.3212 69.1403 22.5502C68.9147 22.7793 68.7865 23.0859 68.7823 23.4065C68.785 23.572 68.8222 23.7351 68.8916 23.8855C68.961 24.036 69.0611 24.1704 69.1854 24.2804C69.3098 24.3904 69.4558 24.4736 69.6141 24.5246C69.7725 24.5756 69.9397 24.5934 70.1054 24.5768C70.4182 24.6086 70.7343 24.569 71.0295 24.4611C71.3247 24.3533 71.5914 24.1799 71.8092 23.9543C72.027 23.7287 72.1902 23.4567 72.2865 23.159C72.3828 22.8613 72.4096 22.5457 72.3649 22.2361Z" fill="white"/>
<path d="M78.1762 12.336C78.3638 12.3337 78.55 12.3685 78.724 12.4384C78.898 12.5082 79.0563 12.6116 79.1897 12.7428C79.3232 12.8739 79.4292 13.03 79.5015 13.2022C79.5738 13.3743 79.611 13.559 79.611 13.7456C79.611 14.1171 79.4626 14.4735 79.1983 14.7362C78.9341 14.999 78.5757 15.1466 78.202 15.1466C77.8283 15.1466 77.4699 14.999 77.2057 14.7362C76.9414 14.4735 76.793 14.1171 76.793 13.7456C76.7929 13.3776 76.9375 13.0241 77.196 12.7607C77.4544 12.4974 77.8062 12.3449 78.1762 12.336ZM77.1195 26.0044V16.9235H79.2588V25.9617L77.1195 26.0044Z" fill="white"/>
<path d="M84.2237 25.961H82.0586V16.9228H84.1721V18.1273C84.4464 17.6649 84.8409 17.2844 85.314 17.0259C85.7872 16.7673 86.3217 16.6402 86.8613 16.6579C89.0779 16.6579 90.1432 18.2554 90.1432 20.2459V25.961H87.9782V20.6132C87.9782 19.5027 87.4713 18.6057 86.1138 18.6057C85.8436 18.6073 85.5768 18.6658 85.3309 18.7772C85.0851 18.8886 84.8657 19.0505 84.6872 19.2521C84.5087 19.4538 84.3751 19.6908 84.2952 19.9475C84.2153 20.2041 84.191 20.4747 84.2237 20.7414V25.961Z" fill="white"/>
<path d="M92.7812 25.9612V12.5234H94.9463V25.9612H92.7812Z" fill="white"/>
<path d="M98.8105 12.3359C99.1865 12.3359 99.5471 12.4844 99.8129 12.7488C100.079 13.0131 100.228 13.3716 100.228 13.7455C100.226 14.0218 100.142 14.2915 99.9871 14.5206C99.8316 14.7497 99.6115 14.9279 99.3544 15.0329C99.0972 15.1379 98.8147 15.1649 98.5421 15.1106C98.2696 15.0562 98.0193 14.923 97.8228 14.7275C97.6263 14.5321 97.4923 14.2833 97.4376 14.0123C97.383 13.7413 97.4102 13.4604 97.5157 13.2047C97.6213 12.9491 97.8006 12.7302 98.031 12.5756C98.2614 12.421 98.5326 12.3376 98.8105 12.3359ZM97.7452 26.0043V16.9234H99.893V25.9616L97.7452 26.0043Z" fill="white"/>
<path d="M104.86 25.9607H102.695V16.9225H104.8V18.127C105.075 17.6658 105.47 17.2864 105.943 17.028C106.416 16.7696 106.95 16.6418 107.489 16.6576C109.714 16.6576 110.779 18.2551 110.779 20.2456V25.9607H108.614V20.6129C108.654 20.3528 108.634 20.0871 108.556 19.8357C108.478 19.5843 108.344 19.3536 108.164 19.1607C107.984 18.9679 107.763 18.8178 107.516 18.7216C107.27 18.6255 107.005 18.5857 106.741 18.6054C106.472 18.6069 106.205 18.6653 105.96 18.7768C105.714 18.8883 105.495 19.0503 105.317 19.2522C105.139 19.454 105.007 19.6911 104.928 19.9478C104.849 20.2045 104.826 20.4748 104.86 20.7411V25.9607Z" fill="white"/>
<path d="M118.183 20.7416L121.998 25.9612H119.343L116.671 22.2365L115.554 23.4069V25.9697H113.406V12.5234H115.554V20.5792L119.043 16.923H121.921L118.183 20.7416Z" fill="white"/>
<path d="M16.2294 8.89348L25.5942 14.2412V24.9794L16.2552 30.3614L6.89042 25.0222V14.2839L16.2294 8.89348ZM16.2294 1L12.7928 2.98191L3.43662 8.37238L0 10.3543V14.301V25.0307V28.9774L3.43662 30.9423L12.8014 36.29L16.238 38.2548L19.6747 36.2729L29.0137 30.8825L32.4503 28.9091V24.9624V14.2241V10.2774L29.0137 8.31258L19.6489 2.96483L16.2123 1H16.2294Z" fill="white"/>
</svg>
