<svg width="321" height="281" viewBox="0 0 321 281" fill="none" xmlns="http://www.w3.org/2000/svg">
<path d="M6.0688 90.112C5.0888 90.112 4.20213 89.8973 3.4088 89.468C2.6248 89.0293 2.0088 88.432 1.5608 87.676C1.1128 86.9107 0.888797 86.052 0.888797 85.1C0.888797 84.148 1.1128 83.294 1.5608 82.538C2.0088 81.7727 2.62946 81.1753 3.4228 80.746C4.21613 80.3073 5.1028 80.088 6.0828 80.088C6.84813 80.088 7.54813 80.2187 8.1828 80.48C8.81746 80.732 9.3588 81.11 9.8068 81.614L8.8968 82.496C8.15946 81.7213 7.24013 81.334 6.1388 81.334C5.4108 81.334 4.7528 81.4973 4.1648 81.824C3.5768 82.1507 3.1148 82.6033 2.7788 83.182C2.45213 83.7513 2.2888 84.3907 2.2888 85.1C2.2888 85.8093 2.45213 86.4533 2.7788 87.032C3.1148 87.6013 3.5768 88.0493 4.1648 88.376C4.7528 88.7027 5.4108 88.866 6.1388 88.866C7.2308 88.866 8.15013 88.474 8.8968 87.69L9.8068 88.572C9.3588 89.076 8.8128 89.4587 8.1688 89.72C7.53413 89.9813 6.83413 90.112 6.0688 90.112ZM14.4715 90.084C13.7342 90.084 13.0715 89.9207 12.4835 89.594C11.8955 89.2673 11.4335 88.8193 11.0975 88.25C10.7709 87.6713 10.6075 87.018 10.6075 86.29C10.6075 85.562 10.7709 84.9133 11.0975 84.344C11.4335 83.7653 11.8955 83.3173 12.4835 83C13.0715 82.6733 13.7342 82.51 14.4715 82.51C15.2089 82.51 15.8669 82.6733 16.4455 83C17.0335 83.3173 17.4909 83.7653 17.8175 84.344C18.1535 84.9133 18.3215 85.562 18.3215 86.29C18.3215 87.018 18.1535 87.6713 17.8175 88.25C17.4909 88.8193 17.0335 89.2673 16.4455 89.594C15.8669 89.9207 15.2089 90.084 14.4715 90.084ZM14.4715 88.908C14.9475 88.908 15.3722 88.8007 15.7455 88.586C16.1282 88.362 16.4269 88.054 16.6415 87.662C16.8562 87.2607 16.9635 86.8033 16.9635 86.29C16.9635 85.7767 16.8562 85.324 16.6415 84.932C16.4269 84.5307 16.1282 84.2227 15.7455 84.008C15.3722 83.7933 14.9475 83.686 14.4715 83.686C13.9955 83.686 13.5662 83.7933 13.1835 84.008C12.8102 84.2227 12.5115 84.5307 12.2875 84.932C12.0729 85.324 11.9655 85.7767 11.9655 86.29C11.9655 86.8033 12.0729 87.2607 12.2875 87.662C12.5115 88.054 12.8102 88.362 13.1835 88.586C13.5662 88.8007 13.9955 88.908 14.4715 88.908ZM24.1423 82.51C25.0849 82.51 25.8316 82.7853 26.3823 83.336C26.9423 83.8773 27.2223 84.6753 27.2223 85.73V90H25.8783V85.884C25.8783 85.1653 25.7056 84.624 25.3603 84.26C25.0149 83.896 24.5203 83.714 23.8763 83.714C23.1483 83.714 22.5743 83.9287 22.1543 84.358C21.7343 84.778 21.5243 85.3847 21.5243 86.178V90H20.1803V82.58H21.4683V83.7C21.7389 83.3173 22.1029 83.0233 22.5603 82.818C23.0269 82.6127 23.5543 82.51 24.1423 82.51ZM33.6715 82.51C34.6142 82.51 35.3609 82.7853 35.9115 83.336C36.4715 83.8773 36.7515 84.6753 36.7515 85.73V90H35.4075V85.884C35.4075 85.1653 35.2349 84.624 34.8895 84.26C34.5442 83.896 34.0495 83.714 33.4055 83.714C32.6775 83.714 32.1035 83.9287 31.6835 84.358C31.2635 84.778 31.0535 85.3847 31.0535 86.178V90H29.7095V82.58H30.9975V83.7C31.2682 83.3173 31.6322 83.0233 32.0895 82.818C32.5562 82.6127 33.0835 82.51 33.6715 82.51ZM45.9859 86.332C45.9859 86.4347 45.9765 86.57 45.9579 86.738H39.9379C40.0219 87.3913 40.3065 87.9187 40.7919 88.32C41.2865 88.712 41.8979 88.908 42.6259 88.908C43.5125 88.908 44.2265 88.6093 44.7679 88.012L45.5099 88.88C45.1739 89.272 44.7539 89.5707 44.2499 89.776C43.7552 89.9813 43.1999 90.084 42.5839 90.084C41.7999 90.084 41.1045 89.9253 40.4979 89.608C39.8912 89.2813 39.4199 88.8287 39.0839 88.25C38.7572 87.6713 38.5939 87.018 38.5939 86.29C38.5939 85.5713 38.7525 84.9227 39.0699 84.344C39.3965 83.7653 39.8399 83.3173 40.3999 83C40.9692 82.6733 41.6085 82.51 42.3179 82.51C43.0272 82.51 43.6572 82.6733 44.2079 83C44.7679 83.3173 45.2019 83.7653 45.5099 84.344C45.8272 84.9227 45.9859 85.5853 45.9859 86.332ZM42.3179 83.644C41.6739 83.644 41.1325 83.84 40.6939 84.232C40.2645 84.624 40.0125 85.1373 39.9379 85.772H44.6979C44.6232 85.1467 44.3665 84.638 43.9279 84.246C43.4985 83.8447 42.9619 83.644 42.3179 83.644ZM51.0861 90.084C50.3301 90.084 49.6535 89.9207 49.0561 89.594C48.4681 89.2673 48.0061 88.8193 47.6701 88.25C47.3341 87.6713 47.1661 87.018 47.1661 86.29C47.1661 85.562 47.3341 84.9133 47.6701 84.344C48.0061 83.7653 48.4681 83.3173 49.0561 83C49.6535 82.6733 50.3301 82.51 51.0861 82.51C51.7581 82.51 52.3555 82.6453 52.8781 82.916C53.4101 83.1867 53.8208 83.5787 54.1101 84.092L53.0881 84.75C52.8548 84.3953 52.5655 84.1293 52.2201 83.952C51.8748 83.7747 51.4921 83.686 51.0721 83.686C50.5868 83.686 50.1481 83.7933 49.7561 84.008C49.3735 84.2227 49.0701 84.5307 48.8461 84.932C48.6315 85.324 48.5241 85.7767 48.5241 86.29C48.5241 86.8127 48.6315 87.2747 48.8461 87.676C49.0701 88.068 49.3735 88.3713 49.7561 88.586C50.1481 88.8007 50.5868 88.908 51.0721 88.908C51.4921 88.908 51.8748 88.8193 52.2201 88.642C52.5655 88.4647 52.8548 88.1987 53.0881 87.844L54.1101 88.488C53.8208 89.0013 53.4101 89.398 52.8781 89.678C52.3555 89.9487 51.7581 90.084 51.0861 90.084ZM60.1179 89.566C59.9219 89.734 59.6792 89.8647 59.3899 89.958C59.1005 90.042 58.8019 90.084 58.4939 90.084C57.7472 90.084 57.1685 89.8833 56.7579 89.482C56.3472 89.0807 56.1419 88.5067 56.1419 87.76V83.686H54.8819V82.58H56.1419V80.956H57.4859V82.58H59.6139V83.686H57.4859V87.704C57.4859 88.1053 57.5839 88.4133 57.7799 88.628C57.9852 88.8427 58.2745 88.95 58.6479 88.95C59.0585 88.95 59.4085 88.8333 59.6979 88.6L60.1179 89.566ZM79.5445 80.2L76.2685 90H74.7985L72.1245 82.174L69.4505 90H67.9525L64.6765 80.2H66.1185L68.7645 88.166L71.5225 80.2H72.8105L75.5125 88.208L78.2145 80.2H79.5445ZM83.2026 82.51C84.2292 82.51 85.0132 82.762 85.5546 83.266C86.1052 83.77 86.3806 84.5213 86.3806 85.52V90H85.1066V89.02C84.8826 89.3653 84.5606 89.6313 84.1406 89.818C83.7299 89.9953 83.2399 90.084 82.6706 90.084C81.8399 90.084 81.1726 89.8833 80.6686 89.482C80.1739 89.0807 79.9266 88.5533 79.9266 87.9C79.9266 87.2467 80.1646 86.724 80.6406 86.332C81.1166 85.9307 81.8726 85.73 82.9086 85.73H85.0366V85.464C85.0366 84.8853 84.8686 84.442 84.5326 84.134C84.1966 83.826 83.7019 83.672 83.0486 83.672C82.6099 83.672 82.1806 83.7467 81.7606 83.896C81.3406 84.036 80.9859 84.2273 80.6966 84.47L80.1366 83.462C80.5192 83.154 80.9766 82.9207 81.5086 82.762C82.0406 82.594 82.6052 82.51 83.2026 82.51ZM82.8946 89.048C83.4079 89.048 83.8512 88.936 84.2246 88.712C84.5979 88.4787 84.8686 88.152 85.0366 87.732V86.696H82.9646C81.8259 86.696 81.2566 87.0787 81.2566 87.844C81.2566 88.2173 81.4012 88.5113 81.6906 88.726C81.9799 88.9407 82.3812 89.048 82.8946 89.048ZM88.8678 79.612H90.2118V90H88.8678V79.612ZM92.7779 79.612H94.1219V90H92.7779V79.612ZM103.394 86.332C103.394 86.4347 103.385 86.57 103.366 86.738H97.3461C97.4301 87.3913 97.7147 87.9187 98.2001 88.32C98.6947 88.712 99.3061 88.908 100.034 88.908C100.921 88.908 101.635 88.6093 102.176 88.012L102.918 88.88C102.582 89.272 102.162 89.5707 101.658 89.776C101.163 89.9813 100.608 90.084 99.9921 90.084C99.2081 90.084 98.5127 89.9253 97.9061 89.608C97.2994 89.2813 96.8281 88.8287 96.4921 88.25C96.1654 87.6713 96.0021 87.018 96.0021 86.29C96.0021 85.5713 96.1607 84.9227 96.4781 84.344C96.8047 83.7653 97.2481 83.3173 97.8081 83C98.3774 82.6733 99.0167 82.51 99.7261 82.51C100.435 82.51 101.065 82.6733 101.616 83C102.176 83.3173 102.61 83.7653 102.918 84.344C103.235 84.9227 103.394 85.5853 103.394 86.332ZM99.7261 83.644C99.0821 83.644 98.5407 83.84 98.1021 84.232C97.6727 84.624 97.4207 85.1373 97.3461 85.772H102.106C102.031 85.1467 101.775 84.638 101.336 84.246C100.907 83.8447 100.37 83.644 99.7261 83.644ZM109.432 89.566C109.236 89.734 108.994 89.8647 108.704 89.958C108.415 90.042 108.116 90.084 107.808 90.084C107.062 90.084 106.483 89.8833 106.072 89.482C105.662 89.0807 105.456 88.5067 105.456 87.76V83.686H104.196V82.58H105.456V80.956H106.8V82.58H108.928V83.686H106.8V87.704C106.8 88.1053 106.898 88.4133 107.094 88.628C107.3 88.8427 107.589 88.95 107.962 88.95C108.373 88.95 108.723 88.8333 109.012 88.6L109.432 89.566Z" fill="white"/>
<path d="M71 59H33C31.6744 58.9984 30.4036 58.4711 29.4662 57.5338C28.5289 56.5964 28.0016 55.3256 28 54V22C28 21.7348 28.1054 21.4804 28.2929 21.2929C28.4804 21.1054 28.7348 21 29 21C29.2652 21 29.5196 21.1054 29.7071 21.2929C29.8946 21.4804 30 21.7348 30 22V54C30 54.7957 30.3161 55.5587 30.8787 56.1213C31.4413 56.6839 32.2044 57 33 57H71C71.7957 57 72.5587 56.6839 73.1213 56.1213C73.6839 55.5587 74 54.7957 74 54V48C74 47.7348 74.1054 47.4804 74.2929 47.2929C74.4804 47.1054 74.7348 47 75 47C75.2652 47 75.5196 47.1054 75.7071 47.2929C75.8947 47.4804 76 47.7348 76 48V54C75.9984 55.3256 75.4711 56.5964 74.5338 57.5338C73.5965 58.4711 72.3256 58.9984 71 59Z" fill="white"/>
<path d="M74.9999 36.9995C74.7347 36.9995 74.4803 36.8942 74.2928 36.7066C74.1052 36.5191 73.9999 36.2647 73.9999 35.9995V29.9995C73.9978 29.2417 73.7075 28.5131 73.1879 27.9615C73.0953 27.866 73.0227 27.753 72.9744 27.629C72.926 27.5051 72.9029 27.3727 72.9063 27.2397C72.9098 27.1067 72.9397 26.9758 72.9944 26.8545C73.0491 26.7332 73.1275 26.6241 73.2249 26.5335C73.3223 26.4429 73.4368 26.3726 73.5617 26.3268C73.6866 26.281 73.8194 26.2605 73.9523 26.2667C74.0851 26.2728 74.2155 26.3055 74.3356 26.3626C74.4557 26.4198 74.5633 26.5003 74.6519 26.5995C75.5159 27.521 75.9978 28.7363 75.9999 29.9995V35.9995C75.9999 36.2647 75.8945 36.5191 75.707 36.7066C75.5194 36.8942 75.2651 36.9995 74.9999 36.9995Z" fill="white"/>
<path d="M63.68 27H62C61.7348 27 61.4804 26.8946 61.2929 26.7071C61.1054 26.5196 61 26.2652 61 26C61 25.7348 61.1054 25.4804 61.2929 25.2929C61.4804 25.1054 61.7348 25 62 25H63.68C63.9452 25 64.1996 25.1054 64.3871 25.2929C64.5746 25.4804 64.68 25.7348 64.68 26C64.68 26.2652 64.5746 26.5196 64.3871 26.7071C64.1996 26.8946 63.9452 27 63.68 27Z" fill="white"/>
<path d="M70 29C67.6266 29 65.3065 28.2962 63.3332 26.9776C61.3598 25.6591 59.8217 23.7849 58.9135 21.5922C58.0052 19.3995 57.7676 16.9867 58.2306 14.6589C58.6936 12.3311 59.8365 10.193 61.5147 8.51472C63.193 6.83649 65.3311 5.6936 67.6589 5.23058C69.9867 4.76756 72.3995 5.0052 74.5922 5.91345C76.7849 6.8217 78.6591 8.35977 79.9776 10.3332C81.2962 12.3066 82 14.6266 82 17C81.9966 20.1815 80.7312 23.2318 78.4815 25.4815C76.2318 27.7312 73.1815 28.9966 70 29ZM70 7.00001C68.0222 7.00001 66.0888 7.58649 64.4443 8.68531C62.7998 9.78412 61.5181 11.3459 60.7612 13.1732C60.0043 15.0004 59.8063 17.0111 60.1922 18.9509C60.578 20.8907 61.5304 22.6725 62.9289 24.0711C64.3275 25.4696 66.1093 26.422 68.0491 26.8079C69.9889 27.1937 71.9996 26.9957 73.8268 26.2388C75.6541 25.4819 77.2159 24.2002 78.3147 22.5557C79.4135 20.9112 80 18.9778 80 17C79.9971 14.3487 78.9426 11.8069 77.0678 9.93215C75.1931 8.05742 72.6513 7.00292 70 7.00001Z" fill="white"/>
<path d="M63.68 27H33C32.3432 27.0007 31.6927 26.8718 31.0858 26.6207C30.4789 26.3697 29.9274 26.0014 29.463 25.537C28.9986 25.0726 28.6303 24.5211 28.3793 23.9142C28.1282 23.3073 27.9993 22.6568 28 22C28.0022 21.6046 28.0471 21.2107 28.134 20.825C28.4544 19.7368 29.1136 18.7791 30.0157 18.0912C30.9178 17.4033 32.0158 17.021 33.15 17H59C59.2652 17 59.5196 17.1054 59.7071 17.2929C59.8946 17.4804 60 17.7348 60 18C60 18.2652 59.8946 18.5196 59.7071 18.7071C59.5196 18.8946 59.2652 19 59 19H33.15C32.4695 19.0246 31.8124 19.2546 31.2651 19.6597C30.7179 20.0649 30.3061 20.6263 30.084 21.27C30.0303 21.5097 30.0021 21.7544 30 22C29.9992 22.3942 30.0763 22.7846 30.2268 23.149C30.3772 23.5133 30.5982 23.8443 30.8769 24.1231C31.1557 24.4018 31.4867 24.6228 31.851 24.7732C32.2154 24.9237 32.6058 25.0008 33 25H63.68C63.9452 25 64.1996 25.1054 64.3871 25.2929C64.5746 25.4804 64.68 25.7348 64.68 26C64.68 26.2652 64.5746 26.5196 64.3871 26.7071C64.1996 26.8946 63.9452 27 63.68 27Z" fill="white"/>
<path d="M77 49H67C65.1435 49 63.363 48.2625 62.0503 46.9497C60.7375 45.637 60 43.8565 60 42C60 40.1435 60.7375 38.363 62.0503 37.0503C63.363 35.7375 65.1435 35 67 35H77C77.2652 35 77.5196 35.1054 77.7071 35.2929C77.8946 35.4804 78 35.7348 78 36V48C78 48.2652 77.8946 48.5196 77.7071 48.7071C77.5196 48.8946 77.2652 49 77 49ZM67 37C65.6739 37 64.4021 37.5268 63.4645 38.4645C62.5268 39.4021 62 40.6739 62 42C62 43.3261 62.5268 44.5979 63.4645 45.5355C64.4021 46.4732 65.6739 47 67 47H76V37H67Z" fill="white"/>
<path d="M69 45C68.4067 45 67.8266 44.8241 67.3333 44.4944C66.8399 44.1648 66.4554 43.6962 66.2284 43.1481C66.0013 42.5999 65.9419 41.9967 66.0576 41.4147C66.1734 40.8328 66.4591 40.2982 66.8787 39.8787C67.2982 39.4591 67.8328 39.1734 68.4147 39.0576C68.9967 38.9419 69.5999 39.0013 70.1481 39.2284C70.6962 39.4554 71.1648 39.8399 71.4944 40.3333C71.8241 40.8266 72 41.4067 72 42C72 42.7957 71.6839 43.5587 71.1213 44.1213C70.5587 44.6839 69.7957 45 69 45ZM69 41C68.8022 41 68.6089 41.0587 68.4444 41.1685C68.28 41.2784 68.1518 41.4346 68.0761 41.6173C68.0004 41.8 67.9806 42.0011 68.0192 42.1951C68.0578 42.3891 68.153 42.5673 68.2929 42.7071C68.4327 42.847 68.6109 42.9422 68.8049 42.9808C68.9989 43.0194 69.2 42.9996 69.3827 42.9239C69.5654 42.8482 69.7216 42.72 69.8315 42.5556C69.9414 42.3911 70 42.1978 70 42C70 41.7348 69.8946 41.4804 69.7071 41.2929C69.5196 41.1054 69.2652 41 69 41Z" fill="#FBC02D"/>
<path d="M76 23C75.7348 23 75.4804 22.8946 75.2929 22.7071C75.1054 22.5196 75 22.2652 75 22C74.9971 19.3487 73.9426 16.8069 72.0679 14.9321C70.1931 13.0574 67.6513 12.0029 65 12C64.7348 12 64.4804 11.8946 64.2929 11.7071C64.1054 11.5196 64 11.2652 64 11C64 10.7348 64.1054 10.4804 64.2929 10.2929C64.4804 10.1054 64.7348 10 65 10C68.1815 10.0034 71.2318 11.2688 73.4815 13.5185C75.7312 15.7682 76.9966 18.8185 77 22C77 22.2652 76.8946 22.5196 76.7071 22.7071C76.5196 22.8946 76.2652 23 76 23Z" fill="#FBC02D"/>
<path d="M72 23C71.7348 23 71.4804 22.8946 71.2929 22.7071C71.1054 22.5196 71 22.2652 71 22C70.9984 20.4092 70.3658 18.884 69.2409 17.7591C68.116 16.6342 66.5908 16.0016 65 16C64.7348 16 64.4804 15.8946 64.2929 15.7071C64.1054 15.5196 64 15.2652 64 15C64 14.7348 64.1054 14.4804 64.2929 14.2929C64.4804 14.1054 64.7348 14 65 14C67.121 14.0024 69.1544 14.846 70.6542 16.3458C72.154 17.8456 72.9976 19.879 73 22C73 22.2652 72.8946 22.5196 72.7071 22.7071C72.5196 22.8946 72.2652 23 72 23Z" fill="#FBC02D"/>
<path d="M68 23C67.7348 23 67.4804 22.8946 67.2929 22.7071C67.1054 22.5196 67 22.2652 67 22C67 21.4696 66.7893 20.9609 66.4142 20.5858C66.0391 20.2107 65.5304 20 65 20C64.7348 20 64.4804 19.8946 64.2929 19.7071C64.1054 19.5196 64 19.2652 64 19C64 18.7348 64.1054 18.4804 64.2929 18.2929C64.4804 18.1054 64.7348 18 65 18C66.0609 18 67.0783 18.4214 67.8284 19.1716C68.5786 19.9217 69 20.9391 69 22C69 22.2652 68.8946 22.5196 68.7071 22.7071C68.5196 22.8946 68.2652 23 68 23Z" fill="#FBC02D"/>
<path d="M150 236L160 241.773L160 230.226L150 236ZM200 235L159 235L159 237L200 237L200 235Z" fill="white"/>
<path d="M12.3442 278.112C11.3642 278.112 10.4775 277.897 9.68419 277.468C8.90019 277.029 8.28419 276.432 7.83619 275.676C7.38819 274.911 7.16419 274.052 7.16419 273.1C7.16419 272.148 7.38819 271.294 7.83619 270.538C8.28419 269.773 8.90485 269.175 9.69819 268.746C10.4915 268.307 11.3782 268.088 12.3582 268.088C13.1235 268.088 13.8235 268.219 14.4582 268.48C15.0929 268.732 15.6342 269.11 16.0822 269.614L15.1722 270.496C14.4349 269.721 13.5155 269.334 12.4142 269.334C11.6862 269.334 11.0282 269.497 10.4402 269.824C9.85219 270.151 9.39019 270.603 9.05419 271.182C8.72752 271.751 8.56419 272.391 8.56419 273.1C8.56419 273.809 8.72752 274.453 9.05419 275.032C9.39019 275.601 9.85219 276.049 10.4402 276.376C11.0282 276.703 11.6862 276.866 12.4142 276.866C13.5062 276.866 14.4255 276.474 15.1722 275.69L16.0822 276.572C15.6342 277.076 15.0882 277.459 14.4442 277.72C13.8095 277.981 13.1095 278.112 12.3442 278.112ZM17.8834 267.612H19.2274V278H17.8834V267.612ZM24.4955 270.51C25.5222 270.51 26.3062 270.762 26.8475 271.266C27.3982 271.77 27.6735 272.521 27.6735 273.52V278H26.3995V277.02C26.1755 277.365 25.8535 277.631 25.4335 277.818C25.0229 277.995 24.5329 278.084 23.9635 278.084C23.1329 278.084 22.4655 277.883 21.9615 277.482C21.4669 277.081 21.2195 276.553 21.2195 275.9C21.2195 275.247 21.4575 274.724 21.9335 274.332C22.4095 273.931 23.1655 273.73 24.2015 273.73H26.3295V273.464C26.3295 272.885 26.1615 272.442 25.8255 272.134C25.4895 271.826 24.9949 271.672 24.3415 271.672C23.9029 271.672 23.4735 271.747 23.0535 271.896C22.6335 272.036 22.2789 272.227 21.9895 272.47L21.4295 271.462C21.8122 271.154 22.2695 270.921 22.8015 270.762C23.3335 270.594 23.8982 270.51 24.4955 270.51ZM24.1875 277.048C24.7009 277.048 25.1442 276.936 25.5175 276.712C25.8909 276.479 26.1615 276.152 26.3295 275.732V274.696H24.2575C23.1189 274.696 22.5495 275.079 22.5495 275.844C22.5495 276.217 22.6942 276.511 22.9835 276.726C23.2729 276.941 23.6742 277.048 24.1875 277.048ZM30.1607 270.58H31.5047V278H30.1607V270.58ZM30.8327 269.152C30.5714 269.152 30.3521 269.068 30.1747 268.9C30.0067 268.732 29.9227 268.527 29.9227 268.284C29.9227 268.041 30.0067 267.836 30.1747 267.668C30.3521 267.491 30.5714 267.402 30.8327 267.402C31.0941 267.402 31.3087 267.486 31.4767 267.654C31.6541 267.813 31.7427 268.013 31.7427 268.256C31.7427 268.508 31.6541 268.723 31.4767 268.9C31.3087 269.068 31.0941 269.152 30.8327 269.152ZM43.3529 270.51C44.2862 270.51 45.0235 270.781 45.5649 271.322C46.1155 271.863 46.3909 272.666 46.3909 273.73V278H45.0469V273.884C45.0469 273.165 44.8789 272.624 44.5429 272.26C44.2162 271.896 43.7449 271.714 43.1289 271.714C42.4475 271.714 41.9062 271.929 41.5049 272.358C41.1035 272.778 40.9029 273.385 40.9029 274.178V278H39.5589V273.884C39.5589 273.165 39.3909 272.624 39.0549 272.26C38.7282 271.896 38.2569 271.714 37.6409 271.714C36.9595 271.714 36.4182 271.929 36.0169 272.358C35.6155 272.778 35.4149 273.385 35.4149 274.178V278H34.0709V270.58H35.3589V271.686C35.6295 271.303 35.9842 271.014 36.4229 270.818C36.8615 270.613 37.3609 270.51 37.9209 270.51C38.4995 270.51 39.0129 270.627 39.4609 270.86C39.9089 271.093 40.2542 271.434 40.4969 271.882C40.7769 271.453 41.1642 271.117 41.6589 270.874C42.1629 270.631 42.7275 270.51 43.3529 270.51ZM66.6656 268.2L63.3896 278H61.9196L59.2456 270.174L56.5716 278H55.0736L51.7976 268.2H53.2396L55.8856 276.166L58.6436 268.2H59.9316L62.6336 276.208L65.3356 268.2H66.6656ZM68.1959 270.58H69.5399V278H68.1959V270.58ZM68.8679 269.152C68.6065 269.152 68.3872 269.068 68.2099 268.9C68.0419 268.732 67.9579 268.527 67.9579 268.284C67.9579 268.041 68.0419 267.836 68.2099 267.668C68.3872 267.491 68.6065 267.402 68.8679 267.402C69.1292 267.402 69.3439 267.486 69.5119 267.654C69.6892 267.813 69.7779 268.013 69.7779 268.256C69.7779 268.508 69.6892 268.723 69.5119 268.9C69.3439 269.068 69.1292 269.152 68.8679 269.152ZM76.068 270.51C77.0107 270.51 77.7574 270.785 78.308 271.336C78.868 271.877 79.148 272.675 79.148 273.73V278H77.804V273.884C77.804 273.165 77.6314 272.624 77.286 272.26C76.9407 271.896 76.446 271.714 75.802 271.714C75.074 271.714 74.5 271.929 74.08 272.358C73.66 272.778 73.45 273.385 73.45 274.178V278H72.106V270.58H73.394V271.7C73.6647 271.317 74.0287 271.023 74.486 270.818C74.9527 270.613 75.48 270.51 76.068 270.51ZM81.6353 270.58H82.9793V278H81.6353V270.58ZM82.3073 269.152C82.046 269.152 81.8267 269.068 81.6493 268.9C81.4813 268.732 81.3973 268.527 81.3973 268.284C81.3973 268.041 81.4813 267.836 81.6493 267.668C81.8267 267.491 82.046 267.402 82.3073 267.402C82.5687 267.402 82.7833 267.486 82.9513 267.654C83.1287 267.813 83.2173 268.013 83.2173 268.256C83.2173 268.508 83.1287 268.723 82.9513 268.9C82.7833 269.068 82.5687 269.152 82.3073 269.152ZM89.5075 270.51C90.4502 270.51 91.1968 270.785 91.7475 271.336C92.3075 271.877 92.5875 272.675 92.5875 273.73V278H91.2435V273.884C91.2435 273.165 91.0708 272.624 90.7255 272.26C90.3802 271.896 89.8855 271.714 89.2415 271.714C88.5135 271.714 87.9395 271.929 87.5195 272.358C87.0995 272.778 86.8895 273.385 86.8895 274.178V278H85.5455V270.58H86.8335V271.7C87.1042 271.317 87.4682 271.023 87.9255 270.818C88.3922 270.613 88.9195 270.51 89.5075 270.51ZM102.214 270.58V276.992C102.214 278.289 101.892 279.246 101.248 279.862C100.604 280.487 99.6425 280.8 98.3638 280.8C97.6638 280.8 96.9965 280.702 96.3618 280.506C95.7271 280.319 95.2138 280.049 94.8218 279.694L95.4658 278.658C95.8111 278.957 96.2358 279.19 96.7398 279.358C97.2531 279.535 97.7805 279.624 98.3218 279.624C99.1898 279.624 99.8291 279.419 100.24 279.008C100.66 278.597 100.87 277.972 100.87 277.132V276.544C100.552 276.927 100.16 277.216 99.6938 277.412C99.2365 277.599 98.7371 277.692 98.1958 277.692C97.4865 277.692 96.8425 277.543 96.2638 277.244C95.6945 276.936 95.2465 276.511 94.9198 275.97C94.5931 275.419 94.4298 274.794 94.4298 274.094C94.4298 273.394 94.5931 272.773 94.9198 272.232C95.2465 271.681 95.6945 271.257 96.2638 270.958C96.8425 270.659 97.4865 270.51 98.1958 270.51C98.7558 270.51 99.2738 270.613 99.7498 270.818C100.235 271.023 100.632 271.327 100.94 271.728V270.58H102.214ZM98.3498 276.516C98.8351 276.516 99.2691 276.413 99.6518 276.208C100.044 276.003 100.347 275.718 100.562 275.354C100.786 274.981 100.898 274.561 100.898 274.094C100.898 273.375 100.66 272.797 100.184 272.358C99.7078 271.91 99.0965 271.686 98.3498 271.686C97.5938 271.686 96.9778 271.91 96.5018 272.358C96.0258 272.797 95.7878 273.375 95.7878 274.094C95.7878 274.561 95.8951 274.981 96.1098 275.354C96.3338 275.718 96.6371 276.003 97.0198 276.208C97.4118 276.413 97.8551 276.516 98.3498 276.516Z" fill="white"/>
<path d="M75.7081 215.579H51.8667C52.9692 214.311 53.639 212.658 53.639 210.851C53.639 206.873 50.4029 203.637 46.425 203.637C42.4471 203.637 39.211 206.873 39.211 210.851C39.211 212.658 39.8808 214.311 40.9832 215.579H35.292C31.8529 215.579 29.0549 218.377 29.0549 221.816V229.175C29.0549 229.864 29.6134 230.423 30.3023 230.423C30.9913 230.423 31.5498 229.864 31.5498 229.175V221.816C31.5498 219.752 33.2285 218.074 35.292 218.074H70.2195C72.2829 218.074 73.9617 219.752 73.9617 221.816V228.552H60.9886C57.5495 228.552 54.7516 231.35 54.7516 234.789C54.7516 238.228 57.5495 241.026 60.9886 241.026H73.9617V247.762C73.9617 249.825 72.2829 251.504 70.2195 251.504H35.292C33.2285 251.504 31.5498 249.825 31.5498 247.762V240.392C31.5498 239.703 30.9913 239.145 30.3023 239.145C29.6134 239.145 29.0549 239.703 29.0549 240.392V247.762C29.0549 251.201 31.8529 253.999 35.292 253.999H75.7081C79.1472 253.999 81.9451 251.201 81.9451 247.762V221.816C81.9451 218.377 79.1472 215.579 75.7081 215.579ZM46.425 206.132C49.0272 206.132 51.1442 208.249 51.1442 210.851C51.1442 213.453 49.0272 215.57 46.425 215.57C43.8229 215.57 41.7058 213.453 41.7058 210.851C41.7058 208.249 43.8228 206.132 46.425 206.132ZM75.2057 218.074H75.7081C77.7715 218.074 79.4503 219.752 79.4503 221.816V228.552H76.4565V221.816C76.4565 220.413 75.9906 219.117 75.2057 218.074ZM57.2464 234.789C57.2464 232.725 58.9252 231.047 60.9886 231.047H79.4503V238.531H60.9886C58.9252 238.531 57.2464 236.852 57.2464 234.789ZM75.7081 251.504H75.2057C75.9906 250.461 76.4565 249.165 76.4565 247.762V241.026H79.4503V247.762C79.4503 249.825 77.7715 251.504 75.7081 251.504Z" fill="white"/>
<path d="M60.6693 233.541C60.34 233.541 60.0181 233.674 59.7861 233.907C59.5541 234.139 59.4219 234.46 59.4219 234.788C59.4219 235.117 59.5541 235.438 59.7861 235.67C60.0194 235.902 60.34 236.036 60.6693 236.036C60.9974 236.036 61.3179 235.902 61.5512 235.67C61.7832 235.438 61.9167 235.117 61.9167 234.788C61.9167 234.46 61.7832 234.139 61.5512 233.907C61.3192 233.674 60.9974 233.541 60.6693 233.541Z" fill="#FBC02D"/>
<path d="M64.5751 207.172C68.553 207.172 71.7891 203.936 71.7891 199.958C71.7891 195.98 68.553 192.744 64.5751 192.744C60.5972 192.744 57.3611 195.98 57.3611 199.958C57.3611 203.936 60.5972 207.172 64.5751 207.172ZM64.5751 195.239C67.1772 195.239 69.2943 197.356 69.2943 199.958C69.2943 202.561 67.1773 204.677 64.5751 204.677C61.9729 204.677 59.8559 202.561 59.8559 199.958C59.8559 197.356 61.9729 195.239 64.5751 195.239Z" fill="#FBC02D"/>
<path d="M52.3915 202.297C53.0804 202.297 53.6389 201.739 53.6389 201.05V191.247C53.6389 190.558 53.0804 190 52.3915 190C51.7025 190 51.144 190.558 51.144 191.247V201.05C51.144 201.739 51.7025 202.297 52.3915 202.297Z" fill="#FBC02D"/>
<path d="M46.4039 197.983C47.0929 197.983 47.6513 197.425 47.6513 196.736V191.247C47.6513 190.558 47.0929 190 46.4039 190C45.715 190 45.1565 190.558 45.1565 191.247V196.736C45.1565 197.425 45.715 197.983 46.4039 197.983Z" fill="#FBC02D"/>
<path d="M30.3023 236.036C30.6304 236.036 30.9522 235.902 31.1843 235.67C31.4163 235.438 31.5498 235.117 31.5498 234.788C31.5498 234.46 31.4163 234.139 31.1843 233.907C30.9522 233.674 30.6317 233.541 30.3023 233.541C29.9743 233.541 29.6524 233.674 29.4204 233.907C29.1884 234.139 29.0549 234.46 29.0549 234.788C29.0549 235.117 29.1884 235.438 29.4204 235.67C29.6524 235.902 29.9741 236.036 30.3023 236.036Z" fill="#EEEEEE"/>
<path d="M280 166L285.774 156H274.226L280 166ZM279 116V157H281V116H279Z" fill="white"/>
<path d="M259.2 268.2C260.469 268.2 261.468 268.503 262.196 269.11C262.924 269.717 263.288 270.552 263.288 271.616C263.288 272.68 262.924 273.515 262.196 274.122C261.468 274.729 260.469 275.032 259.2 275.032H256.778V278H255.378V268.2H259.2ZM259.158 273.814C260.044 273.814 260.721 273.627 261.188 273.254C261.654 272.871 261.888 272.325 261.888 271.616C261.888 270.907 261.654 270.365 261.188 269.992C260.721 269.609 260.044 269.418 259.158 269.418H256.778V273.814H259.158ZM266.313 271.826C266.547 271.397 266.892 271.07 267.349 270.846C267.807 270.622 268.362 270.51 269.015 270.51V271.812C268.941 271.803 268.838 271.798 268.707 271.798C267.979 271.798 267.405 272.017 266.985 272.456C266.575 272.885 266.369 273.501 266.369 274.304V278H265.025V270.58H266.313V271.826ZM277.31 274.332C277.31 274.435 277.3 274.57 277.282 274.738H271.262C271.346 275.391 271.63 275.919 272.116 276.32C272.61 276.712 273.222 276.908 273.95 276.908C274.836 276.908 275.55 276.609 276.092 276.012L276.834 276.88C276.498 277.272 276.078 277.571 275.574 277.776C275.079 277.981 274.524 278.084 273.908 278.084C273.124 278.084 272.428 277.925 271.822 277.608C271.215 277.281 270.744 276.829 270.408 276.25C270.081 275.671 269.918 275.018 269.918 274.29C269.918 273.571 270.076 272.923 270.394 272.344C270.72 271.765 271.164 271.317 271.724 271C272.293 270.673 272.932 270.51 273.642 270.51C274.351 270.51 274.981 270.673 275.532 271C276.092 271.317 276.526 271.765 276.834 272.344C277.151 272.923 277.31 273.585 277.31 274.332ZM273.642 271.644C272.998 271.644 272.456 271.84 272.018 272.232C271.588 272.624 271.336 273.137 271.262 273.772H276.022C275.947 273.147 275.69 272.638 275.252 272.246C274.822 271.845 274.286 271.644 273.642 271.644ZM286.176 267.612V278H284.888V276.824C284.589 277.235 284.211 277.547 283.754 277.762C283.297 277.977 282.793 278.084 282.242 278.084C281.523 278.084 280.879 277.925 280.31 277.608C279.741 277.291 279.293 276.847 278.966 276.278C278.649 275.699 278.49 275.037 278.49 274.29C278.49 273.543 278.649 272.885 278.966 272.316C279.293 271.747 279.741 271.303 280.31 270.986C280.879 270.669 281.523 270.51 282.242 270.51C282.774 270.51 283.264 270.613 283.712 270.818C284.16 271.014 284.533 271.308 284.832 271.7V267.612H286.176ZM282.354 276.908C282.821 276.908 283.245 276.801 283.628 276.586C284.011 276.362 284.309 276.054 284.524 275.662C284.739 275.261 284.846 274.803 284.846 274.29C284.846 273.777 284.739 273.324 284.524 272.932C284.309 272.531 284.011 272.223 283.628 272.008C283.245 271.793 282.821 271.686 282.354 271.686C281.878 271.686 281.449 271.793 281.066 272.008C280.693 272.223 280.394 272.531 280.17 272.932C279.955 273.324 279.848 273.777 279.848 274.29C279.848 274.803 279.955 275.261 280.17 275.662C280.394 276.054 280.693 276.362 281.066 276.586C281.449 276.801 281.878 276.908 282.354 276.908ZM288.719 270.58H290.063V278H288.719V270.58ZM289.391 269.152C289.129 269.152 288.91 269.068 288.733 268.9C288.565 268.732 288.481 268.527 288.481 268.284C288.481 268.041 288.565 267.836 288.733 267.668C288.91 267.491 289.129 267.402 289.391 267.402C289.652 267.402 289.867 267.486 290.035 267.654C290.212 267.813 290.301 268.013 290.301 268.256C290.301 268.508 290.212 268.723 290.035 268.9C289.867 269.068 289.652 269.152 289.391 269.152ZM295.863 278.084C295.107 278.084 294.43 277.921 293.833 277.594C293.245 277.267 292.783 276.819 292.447 276.25C292.111 275.671 291.943 275.018 291.943 274.29C291.943 273.562 292.111 272.913 292.447 272.344C292.783 271.765 293.245 271.317 293.833 271C294.43 270.673 295.107 270.51 295.863 270.51C296.535 270.51 297.132 270.645 297.655 270.916C298.187 271.187 298.598 271.579 298.887 272.092L297.865 272.75C297.632 272.395 297.342 272.129 296.997 271.952C296.652 271.775 296.269 271.686 295.849 271.686C295.364 271.686 294.925 271.793 294.533 272.008C294.15 272.223 293.847 272.531 293.623 272.932C293.408 273.324 293.301 273.777 293.301 274.29C293.301 274.813 293.408 275.275 293.623 275.676C293.847 276.068 294.15 276.371 294.533 276.586C294.925 276.801 295.364 276.908 295.849 276.908C296.269 276.908 296.652 276.819 296.997 276.642C297.342 276.465 297.632 276.199 297.865 275.844L298.887 276.488C298.598 277.001 298.187 277.398 297.655 277.678C297.132 277.949 296.535 278.084 295.863 278.084ZM304.895 277.566C304.699 277.734 304.456 277.865 304.167 277.958C303.877 278.042 303.579 278.084 303.271 278.084C302.524 278.084 301.945 277.883 301.535 277.482C301.124 277.081 300.919 276.507 300.919 275.76V271.686H299.659V270.58H300.919V268.956H302.263V270.58H304.391V271.686H302.263V275.704C302.263 276.105 302.361 276.413 302.557 276.628C302.762 276.843 303.051 276.95 303.425 276.95C303.835 276.95 304.185 276.833 304.475 276.6L304.895 277.566Z" fill="white"/>
<g clip-path="url(#clip0_1257_165)">
<path d="M305.212 223.346C305.379 222.307 305.485 221.259 305.532 220.207C305.563 220.078 305.569 219.944 305.55 219.813C305.563 219.474 305.597 219.144 305.597 218.802C305.601 211.875 303.097 205.181 298.547 199.957C298.515 199.915 298.48 199.875 298.441 199.838C295.383 196.347 291.528 193.644 287.204 191.957C287.173 191.944 287.143 191.931 287.11 191.921C280.474 189.365 273.126 189.365 266.49 191.921C266.455 191.931 266.422 191.944 266.39 191.96C262.066 193.646 258.212 196.348 255.154 199.838C255.115 199.875 255.079 199.915 255.047 199.957C250.498 205.182 247.995 211.875 248 218.802C248 219.158 248.014 219.512 248.027 219.869V219.923C248.541 232.699 257.403 243.612 269.801 246.737H269.81C272.095 247.309 274.442 247.6 276.798 247.6C278.321 247.596 279.84 247.467 281.342 247.216C285.35 252.535 292.089 255.032 298.595 253.61C305.102 252.188 310.183 247.105 311.606 240.599C313.029 234.093 310.531 227.354 305.212 223.346ZM294.93 219.869C292.541 219.87 290.178 220.376 287.998 221.356L289.427 216.349L295.793 213.648L303.392 220.402C303.359 220.959 303.31 221.505 303.243 222.047C300.705 220.619 297.842 219.869 294.93 219.869ZM279.609 229.468H270.136L266.296 216.029L276.798 208.388L287.301 216.029L285.362 222.813C282.899 224.494 280.916 226.788 279.609 229.468ZM264.685 233.674L253.766 232.213C251.658 228.611 250.431 224.562 250.185 220.395L257.802 213.647L264.17 216.349L268.134 230.225L264.685 233.674ZM256.463 211.984L250.164 217.565C250.401 212.374 252.158 207.366 255.217 203.166L256.463 211.984ZM298.381 203.168C301.443 207.372 303.2 212.385 303.434 217.581L297.134 211.984L298.381 203.168ZM296.547 200.902L295.026 211.656L288.638 214.364L277.865 206.527V198.156L286.8 194.09C290.518 195.602 293.848 197.93 296.546 200.902H296.547ZM283.849 193.089L276.798 196.297L269.748 193.089C274.362 191.819 279.234 191.819 283.849 193.089ZM266.797 194.09L275.732 198.157V206.527L264.959 214.364L258.571 211.656L257.051 200.902C259.748 197.93 263.079 195.602 266.797 194.09ZM255.314 234.573L264.342 235.78L268.143 244.018C263.007 242.244 258.533 238.95 255.314 234.573ZM276.798 245.467C274.796 245.466 272.8 245.239 270.849 244.79L266.346 235.029L269.774 231.601H278.733C277.227 236.131 277.702 241.086 280.043 245.247C278.967 245.387 277.884 245.46 276.798 245.467ZM294.93 251.867C288.891 251.867 283.446 248.229 281.135 242.649C278.823 237.069 280.101 230.646 284.372 226.376C288.643 222.105 295.065 220.828 300.645 223.138C306.225 225.45 309.863 230.895 309.863 236.935C309.854 245.178 303.174 251.858 294.93 251.867Z" fill="white"/>
<path d="M294.93 224.135C287.862 224.135 282.131 229.865 282.131 236.934C282.131 244.003 287.862 249.733 294.93 249.733C301.999 249.733 307.73 244.003 307.73 236.934C307.722 229.869 301.996 224.143 294.93 224.135ZM294.93 247.6C289.04 247.6 284.265 242.825 284.265 236.934C284.265 231.044 289.04 226.268 294.93 226.268C300.821 226.268 305.597 231.044 305.597 236.934C305.59 242.822 300.819 247.594 294.93 247.6Z" fill="white"/>
<path d="M276.092 211.539L269.94 216.019C269.235 216.528 268.911 217.416 269.124 218.259L270.379 223.333C270.496 223.808 270.923 224.143 271.413 224.143C271.5 224.143 271.586 224.133 271.67 224.113C271.945 224.045 272.181 223.87 272.328 223.628C272.474 223.386 272.518 223.096 272.45 222.821L271.194 217.735L277.346 213.262C277.823 212.915 277.928 212.249 277.582 211.772C277.236 211.295 276.569 211.19 276.092 211.536V211.539Z" fill="#FBC02D"/>
<path d="M297.064 240.134H295.997V232.668C295.997 232.236 295.738 231.848 295.339 231.683C294.94 231.518 294.482 231.609 294.177 231.914L292.043 234.047C291.639 234.465 291.645 235.131 292.057 235.542C292.468 235.953 293.133 235.959 293.552 235.555L293.864 235.243V240.134H292.797C292.208 240.134 291.731 240.612 291.731 241.201C291.731 241.79 292.208 242.268 292.797 242.268H297.064C297.653 242.268 298.13 241.79 298.13 241.201C298.13 240.612 297.653 240.134 297.064 240.134Z" fill="#FBC02D"/>
</g>
<path d="M243.243 80.418V83.834H248.157V85.038H243.243V89H241.843V79.2H248.759V80.418H243.243ZM250.397 81.58H251.741V89H250.397V81.58ZM251.069 80.152C250.808 80.152 250.588 80.068 250.411 79.9C250.243 79.732 250.159 79.5267 250.159 79.284C250.159 79.0413 250.243 78.836 250.411 78.668C250.588 78.4907 250.808 78.402 251.069 78.402C251.33 78.402 251.545 78.486 251.713 78.654C251.89 78.8127 251.979 79.0133 251.979 79.256C251.979 79.508 251.89 79.7227 251.713 79.9C251.545 80.068 251.33 80.152 251.069 80.152ZM258.269 81.51C259.212 81.51 259.959 81.7853 260.509 82.336C261.069 82.8773 261.349 83.6753 261.349 84.73V89H260.005V84.884C260.005 84.1653 259.833 83.624 259.487 83.26C259.142 82.896 258.647 82.714 258.003 82.714C257.275 82.714 256.701 82.9287 256.281 83.358C255.861 83.778 255.651 84.3847 255.651 85.178V89H254.307V81.58H255.595V82.7C255.866 82.3173 256.23 82.0233 256.687 81.818C257.154 81.6127 257.681 81.51 258.269 81.51ZM270.878 78.612V89H269.59V87.824C269.291 88.2347 268.913 88.5473 268.456 88.762C267.998 88.9767 267.494 89.084 266.944 89.084C266.225 89.084 265.581 88.9253 265.012 88.608C264.442 88.2907 263.994 87.8473 263.668 87.278C263.35 86.6993 263.192 86.0367 263.192 85.29C263.192 84.5433 263.35 83.8853 263.668 83.316C263.994 82.7467 264.442 82.3033 265.012 81.986C265.581 81.6687 266.225 81.51 266.944 81.51C267.476 81.51 267.966 81.6127 268.414 81.818C268.862 82.014 269.235 82.308 269.534 82.7V78.612H270.878ZM267.056 87.908C267.522 87.908 267.947 87.8007 268.33 87.586C268.712 87.362 269.011 87.054 269.226 86.662C269.44 86.2607 269.548 85.8033 269.548 85.29C269.548 84.7767 269.44 84.324 269.226 83.932C269.011 83.5307 268.712 83.2227 268.33 83.008C267.947 82.7933 267.522 82.686 267.056 82.686C266.58 82.686 266.15 82.7933 265.768 83.008C265.394 83.2227 265.096 83.5307 264.872 83.932C264.657 84.324 264.55 84.7767 264.55 85.29C264.55 85.8033 264.657 86.2607 264.872 86.662C265.096 87.054 265.394 87.362 265.768 87.586C266.15 87.8007 266.58 87.908 267.056 87.908ZM286.462 89L286.448 81.86L282.906 87.81H282.262L278.72 81.902V89H277.376V79.2H278.524L282.612 86.088L286.644 79.2H287.792L287.806 89H286.462ZM293.253 81.51C294.28 81.51 295.064 81.762 295.605 82.266C296.156 82.77 296.431 83.5213 296.431 84.52V89H295.157V88.02C294.933 88.3653 294.611 88.6313 294.191 88.818C293.781 88.9953 293.291 89.084 292.721 89.084C291.891 89.084 291.223 88.8833 290.719 88.482C290.225 88.0807 289.977 87.5533 289.977 86.9C289.977 86.2467 290.215 85.724 290.691 85.332C291.167 84.9307 291.923 84.73 292.959 84.73H295.087V84.464C295.087 83.8853 294.919 83.442 294.583 83.134C294.247 82.826 293.753 82.672 293.099 82.672C292.661 82.672 292.231 82.7467 291.811 82.896C291.391 83.036 291.037 83.2273 290.747 83.47L290.187 82.462C290.57 82.154 291.027 81.9207 291.559 81.762C292.091 81.594 292.656 81.51 293.253 81.51ZM292.945 88.048C293.459 88.048 293.902 87.936 294.275 87.712C294.649 87.4787 294.919 87.152 295.087 86.732V85.696H293.015C291.877 85.696 291.307 86.0787 291.307 86.844C291.307 87.2173 291.452 87.5113 291.741 87.726C292.031 87.9407 292.432 88.048 292.945 88.048ZM303.091 88.566C302.895 88.734 302.652 88.8647 302.363 88.958C302.073 89.042 301.775 89.084 301.467 89.084C300.72 89.084 300.141 88.8833 299.731 88.482C299.32 88.0807 299.115 87.5067 299.115 86.76V82.686H297.855V81.58H299.115V79.956H300.459V81.58H302.587V82.686H300.459V86.704C300.459 87.1053 300.557 87.4133 300.753 87.628C300.958 87.8427 301.247 87.95 301.621 87.95C302.031 87.95 302.381 87.8333 302.671 87.6L303.091 88.566ZM307.703 89.084C306.947 89.084 306.271 88.9207 305.673 88.594C305.085 88.2673 304.623 87.8193 304.287 87.25C303.951 86.6713 303.783 86.018 303.783 85.29C303.783 84.562 303.951 83.9133 304.287 83.344C304.623 82.7653 305.085 82.3173 305.673 82C306.271 81.6733 306.947 81.51 307.703 81.51C308.375 81.51 308.973 81.6453 309.495 81.916C310.027 82.1867 310.438 82.5787 310.727 83.092L309.705 83.75C309.472 83.3953 309.183 83.1293 308.837 82.952C308.492 82.7747 308.109 82.686 307.689 82.686C307.204 82.686 306.765 82.7933 306.373 83.008C305.991 83.2227 305.687 83.5307 305.463 83.932C305.249 84.324 305.141 84.7767 305.141 85.29C305.141 85.8127 305.249 86.2747 305.463 86.676C305.687 87.068 305.991 87.3713 306.373 87.586C306.765 87.8007 307.204 87.908 307.689 87.908C308.109 87.908 308.492 87.8193 308.837 87.642C309.183 87.4647 309.472 87.1987 309.705 86.844L310.727 87.488C310.438 88.0013 310.027 88.398 309.495 88.678C308.973 88.9487 308.375 89.084 307.703 89.084ZM316.334 81.51C317.276 81.51 318.023 81.7853 318.574 82.336C319.134 82.8773 319.414 83.6753 319.414 84.73V89H318.07V84.884C318.07 84.1653 317.897 83.624 317.552 83.26C317.206 82.896 316.712 82.714 316.068 82.714C315.34 82.714 314.766 82.9287 314.346 83.358C313.926 83.778 313.716 84.3847 313.716 85.178V89H312.372V78.612H313.716V82.63C313.996 82.2753 314.36 82 314.808 81.804C315.265 81.608 315.774 81.51 316.334 81.51Z" fill="white"/>
<path d="M264.167 26.0273C260.096 26.0273 256.8 29.3231 256.8 33.3942C256.8 37.4654 260.096 40.7611 264.167 40.7611C268.238 40.7611 271.534 37.4654 271.534 33.3942C271.521 29.336 268.225 26.0403 264.167 26.0273ZM264.167 38.1763C261.53 38.1763 259.385 36.0437 259.385 33.3942C259.385 30.7577 261.517 28.6122 264.167 28.6122C266.804 28.6122 268.949 30.7447 268.949 33.3942C268.936 36.0308 266.804 38.1633 264.167 38.1763Z" fill="white"/>
<path d="M301.26 28.0957H274.959C274.248 28.0957 273.666 28.6773 273.666 29.3881C273.666 30.099 274.248 30.6806 274.959 30.6806H301.26C301.971 30.6806 302.552 30.099 302.552 29.3881C302.552 28.6773 301.971 28.0957 301.26 28.0957Z" fill="white"/>
<path d="M289.124 36.1074H274.959C274.248 36.1074 273.666 36.689 273.666 37.3999C273.666 38.1107 274.235 38.6923 274.959 38.6923H289.124C289.835 38.6923 290.416 38.1107 290.416 37.3999C290.416 36.689 289.835 36.1074 289.124 36.1074Z" fill="#FBC02D"/>
<path d="M264.167 5.80078C260.096 5.80078 256.8 9.09649 256.8 13.1677C256.8 17.2388 260.096 20.5346 264.167 20.5346C268.238 20.5346 271.534 17.2388 271.534 13.1677C271.521 9.09649 268.225 5.80078 264.167 5.80078ZM264.167 17.9368C261.53 17.9368 259.385 15.8042 259.385 13.1547C259.385 10.5052 261.517 8.37273 264.167 8.37273C266.804 8.37273 268.949 10.5052 268.949 13.1547C268.936 15.8042 266.804 17.9368 264.167 17.9368Z" fill="white"/>
<path d="M301.26 7.80273H274.959C274.248 7.80273 273.666 8.38433 273.666 9.09517C273.666 9.80601 274.248 10.3876 274.959 10.3876H301.26C301.971 10.3876 302.552 9.80601 302.552 9.09517C302.552 8.38433 301.971 7.80273 301.26 7.80273Z" fill="white"/>
<path d="M289.124 15.9453H274.959C274.248 15.9453 273.666 16.5269 273.666 17.2377C273.666 17.9486 274.235 18.5302 274.959 18.5302H289.124C289.835 18.5302 290.416 17.9486 290.416 17.2377C290.416 16.5269 289.835 15.9453 289.124 15.9453Z" fill="#FBC02D"/>
<path d="M264.167 46.2656C260.096 46.2656 256.8 49.5613 256.8 53.6325C256.8 57.7037 260.096 60.9994 264.167 60.9994C268.238 60.9994 271.534 57.7037 271.534 53.6325C271.521 49.5613 268.225 46.2656 264.167 46.2656ZM264.167 58.4016C261.53 58.4016 259.385 56.2691 259.385 53.6196C259.385 50.983 261.517 48.8376 264.167 48.8376C266.804 48.8376 268.949 50.9701 268.949 53.6196C268.936 56.2691 266.804 58.4016 264.167 58.4016Z" fill="white"/>
<path d="M301.26 48.2578H274.959C274.248 48.2578 273.666 48.8394 273.666 49.5502C273.666 50.2611 274.248 50.8427 274.959 50.8427H301.26C301.971 50.8427 302.552 50.2611 302.552 49.5502C302.552 48.8394 301.971 48.2578 301.26 48.2578Z" fill="white"/>
<path d="M289.124 56.3984H274.959C274.248 56.3984 273.666 56.98 273.666 57.6909C273.666 58.4017 274.248 58.9833 274.959 58.9833H289.124C289.835 58.9833 290.416 58.4017 290.416 57.6909C290.416 56.98 289.835 56.3984 289.124 56.3984Z" fill="#FBC02D"/>
<path d="M200 47L190 41.2265V52.7735L200 47ZM150 48H191V46H150V48Z" fill="white"/>
<defs>
<clipPath id="clip0_1257_165">
<rect width="64" height="64" fill="white" transform="translate(248 190)"/>
</clipPath>
</defs>
</svg>
