<svg width="345" height="101" viewBox="0 0 345 101" fill="none" xmlns="http://www.w3.org/2000/svg">
<path d="M96.0992 35.1031C96.0992 9.90312 78.5992 5.20312 66.4992 5.20312C51.1992 5.20312 47.2992 5.20312 31.4992 5.20312C15.6992 5.20312 5.69922 18.8031 5.69922 29.3031C5.69922 38.0031 5.69922 54.5031 5.69922 69.4031C5.69922 85.3031 18.8992 95.6031 31.8992 95.6031C43.7992 95.6031 58.6992 95.6031 71.1992 95.6031C83.6992 95.6031 95.7992 83.3031 95.7992 71.0031C95.7992 58.7031 96.0992 35.1031 96.0992 35.1031Z" fill="url(#paint0_linear_2659_361)"/>
<path d="M44.0984 76.2H17.3984L43.2984 50.6L46.0984 53.4L26.9984 72.3H42.3984L53.6984 61L17.4984 24.5H43.9984L56.5984 37.1H71.0984L86.3984 52.4H67.8984L59.2984 61L58.3984 60.1L59.2984 61L44.0984 76.2ZM26.9984 28.5L56.3984 58.2L66.0984 48.4H76.5984L69.2984 41.1H54.8984L42.3984 28.5H26.9984Z" fill="white"/>
<path opacity="0.5" d="M46.6992 53.8984L42.6992 49.8984V58.3984C42.6992 58.3984 46.6992 53.7984 46.6992 53.8984Z" fill="#00C0F3"/>
<path opacity="0.5" d="M56.1971 57.8984L60.1971 61.8984V53.3984C60.1971 53.3984 56.0971 57.9984 56.1971 57.8984Z" fill="#00C0F3"/>
<path d="M116.998 63.4047C114.398 63.4047 112.098 62.9047 110.098 62.0047C108.098 61.1047 106.598 59.6047 105.498 57.5047C104.398 55.4047 103.898 52.8047 103.898 49.4047C103.898 46.1047 104.398 43.5047 105.498 41.4047C106.598 39.3047 108.098 37.8047 110.098 36.8047C112.098 35.8047 114.398 35.3047 116.998 35.3047C118.698 35.3047 120.298 35.5047 121.998 35.8047C123.598 36.1047 125.198 36.6047 126.598 37.2047V43.1047C124.998 42.3047 123.498 41.6047 122.098 41.1047C120.698 40.6047 119.298 40.3047 117.798 40.3047C116.298 40.3047 114.998 40.6047 113.898 41.1047C112.798 41.6047 111.998 42.6047 111.398 43.9047C110.798 45.2047 110.598 47.0047 110.598 49.2047C110.598 51.4047 110.898 53.2047 111.498 54.5047C112.098 55.8047 112.898 56.7047 113.898 57.3047C114.898 57.9047 116.198 58.1047 117.598 58.1047C118.298 58.1047 118.998 58.1047 119.598 58.0047C120.198 57.9047 120.798 57.7047 121.298 57.5047V52.7047H116.898V47.6047H127.898V60.2047C126.198 61.1047 124.498 61.8047 122.698 62.3047C120.698 63.1047 118.798 63.4047 116.998 63.4047Z" fill="#00C0F3"/>
<path d="M144.6 63.4C141.9 63.4 139.6 62.9 137.7 61.9C135.7 60.9 134.2 59.4 133.1 57.3C132 55.2 131.5 52.6 131.5 49.4C131.5 44.8 132.7 41.3 135 39C137.3 36.6 140.5 35.5 144.7 35.5C147.4 35.5 149.7 36 151.6 37C153.6 38 155.1 39.5 156.2 41.6C157.3 43.6 157.8 46.3 157.8 49.5C157.8 54.1 156.7 57.6 154.4 60C152 62.2 148.8 63.4 144.6 63.4ZM144.6 58C146 58 147.1 57.7 148.1 57.2C149.1 56.6 149.8 55.7 150.3 54.4C150.8 53.1 151 51.4 151 49.3C151 47.2 150.8 45.5 150.3 44.2C149.8 42.9 149.1 42 148.1 41.5C147.1 40.9 146 40.7 144.6 40.7C143.2 40.7 142.1 41 141.1 41.5C140.2 42.1 139.4 43 138.9 44.2C138.4 45.5 138.2 47.2 138.2 49.3C138.2 51.4 138.4 53.1 138.9 54.4C139.4 55.6 140.1 56.5 141.1 57.1C142.1 57.7 143.2 58 144.6 58Z" fill="#00C0F3"/>
<path d="M161.598 39.4016V35.6016H166.098V39.4016H161.598ZM161.698 62.8016V42.7016H165.898V62.8016H161.698V62.8016Z" fill="white"/>
<path d="M171.297 44.2016C171.897 43.9016 172.597 43.6016 173.297 43.4016C173.997 43.1016 174.797 42.9016 175.697 42.7016C176.497 42.5016 177.397 42.4016 178.197 42.3016C179.097 42.2016 179.897 42.1016 180.697 42.1016C182.597 42.1016 184.197 42.4016 185.397 42.9016C186.597 43.4016 187.497 44.2016 188.097 45.3016C188.697 46.4016 188.997 47.8016 188.997 49.4016V62.8016H184.797V50.0016C184.797 49.5016 184.697 49.0016 184.597 48.5016C184.497 48.0016 184.297 47.5016 183.897 47.1016C183.597 46.7016 183.097 46.4016 182.497 46.1016C181.897 45.8016 180.997 45.7016 179.997 45.7016C179.297 45.7016 178.497 45.8016 177.797 45.9016C176.997 46.0016 176.297 46.2016 175.597 46.5016V62.8016H171.397V44.2016H171.297Z" fill="white"/>
<path d="M195.798 62.8016V46.1016H192.598V42.6016H195.898V41.8016C195.898 40.4016 196.098 39.2016 196.398 38.3016C196.698 37.4016 197.098 36.6016 197.598 36.0016C198.098 35.4016 198.698 35.0016 199.298 34.7016C199.898 34.4016 200.498 34.2016 201.198 34.2016C201.898 34.2016 202.398 34.1016 202.998 34.1016C203.398 34.1016 203.798 34.1016 204.198 34.2016C204.598 34.3016 204.998 34.3016 205.198 34.4016V38.1016C204.998 38.0016 204.698 37.9016 204.498 37.8016C204.198 37.7016 203.898 37.7016 203.498 37.7016C203.098 37.7016 202.698 37.7016 202.298 37.8016C201.898 37.9016 201.498 38.0016 201.198 38.3016C200.898 38.6016 200.598 38.9016 200.398 39.4016C200.198 39.9016 200.098 40.6016 200.098 41.5016V42.7016H205.198V46.2016H199.998V62.9016H195.798V62.8016ZM213.098 62.8016H208.898V34.9016H213.098V62.8016Z" fill="white"/>
<path d="M227.199 63.4016C225.299 63.4016 223.799 63.1016 222.399 62.5016C221.099 61.9016 219.999 61.0016 219.299 59.8016C218.599 58.6016 218.199 57.1016 218.199 55.3016V42.6016H222.399V54.7016C222.399 56.4016 222.799 57.7016 223.499 58.5016C224.299 59.3016 225.499 59.7016 227.099 59.7016C228.699 59.7016 229.899 59.3016 230.699 58.5016C231.499 57.7016 231.799 56.4016 231.799 54.7016V42.6016H235.899V55.3016C235.899 58.0016 235.099 60.0016 233.599 61.4016C232.099 62.7016 229.999 63.4016 227.199 63.4016Z" fill="white"/>
<path d="M249.898 63.4016C247.898 63.4016 246.198 63.0016 244.698 62.2016C243.198 61.4016 242.098 60.2016 241.298 58.6016C240.498 57.0016 240.098 55.1016 240.098 52.8016C240.098 49.3016 240.898 46.6016 242.598 44.8016C244.298 43.0016 246.598 42.1016 249.498 42.1016C251.698 42.1016 253.398 42.6016 254.798 43.5016C256.098 44.5016 257.098 45.8016 257.698 47.5016C258.298 49.2016 258.598 51.3016 258.598 53.6016H242.698L242.598 50.5016H255.398L254.398 51.5016C254.298 49.4016 253.898 47.9016 253.098 47.0016C252.298 46.0016 251.098 45.6016 249.398 45.6016C248.298 45.6016 247.398 45.8016 246.698 46.3016C245.898 46.7016 245.398 47.5016 244.998 48.6016C244.598 49.7016 244.398 51.1016 244.398 53.0016C244.398 55.3016 244.898 57.0016 245.998 58.1016C246.998 59.3016 248.598 59.9016 250.598 59.9016C251.498 59.9016 252.398 59.8016 253.198 59.7016C253.998 59.6016 254.698 59.3016 255.398 59.1016C256.098 58.8016 256.598 58.6016 257.098 58.4016V62.0016C256.198 62.4016 255.098 62.7016 253.898 63.0016C252.698 63.3016 251.298 63.4016 249.898 63.4016Z" fill="white"/>
<path d="M262.598 44.2016C263.198 43.9016 263.898 43.6016 264.598 43.4016C265.298 43.1016 266.098 42.9016 266.998 42.7016C267.798 42.5016 268.698 42.4016 269.498 42.3016C270.398 42.2016 271.198 42.1016 271.998 42.1016C273.898 42.1016 275.498 42.4016 276.698 42.9016C277.898 43.4016 278.798 44.2016 279.398 45.3016C279.998 46.4016 280.298 47.8016 280.298 49.4016V62.8016H275.998V50.0016C275.998 49.5016 275.898 49.0016 275.798 48.5016C275.698 48.0016 275.498 47.5016 275.098 47.1016C274.798 46.7016 274.298 46.4016 273.698 46.1016C273.098 45.8016 272.198 45.7016 271.198 45.7016C270.498 45.7016 269.698 45.8016 268.998 45.9016C268.198 46.0016 267.498 46.2016 266.798 46.5016V62.8016H262.598V44.2016V44.2016Z" fill="white"/>
<path d="M294.298 63.2016C293.098 63.2016 291.898 63.0016 290.698 62.7016C289.498 62.4016 288.498 61.8016 287.498 61.0016C286.498 60.2016 285.798 59.1016 285.198 57.8016C284.598 56.5016 284.398 54.8016 284.398 52.8016C284.398 50.8016 284.698 49.1016 285.198 47.7016C285.698 46.3016 286.498 45.2016 287.398 44.4016C288.298 43.6016 289.398 43.0016 290.598 42.6016C291.798 42.3016 292.998 42.1016 294.298 42.1016C295.398 42.1016 296.398 42.2016 297.498 42.4016C298.598 42.6016 299.598 42.9016 300.498 43.3016V47.1016C299.598 46.7016 298.698 46.4016 297.798 46.2016C296.898 46.0016 295.898 45.9016 294.898 45.9016C292.798 45.9016 291.198 46.4016 290.198 47.5016C289.098 48.5016 288.598 50.2016 288.598 52.6016C288.598 55.0016 289.098 56.8016 290.098 57.9016C291.098 59.0016 292.798 59.6016 294.998 59.6016C295.998 59.6016 296.998 59.5016 297.898 59.2016C298.798 58.9016 299.698 58.6016 300.498 58.3016V62.1016C299.598 62.5016 298.598 62.9016 297.598 63.1016C296.598 63.1016 295.498 63.2016 294.298 63.2016Z" fill="white"/>
<path d="M313.3 63.4016C311.3 63.4016 309.6 63.0016 308.1 62.2016C306.6 61.4016 305.5 60.2016 304.7 58.6016C303.9 57.0016 303.5 55.1016 303.5 52.8016C303.5 49.3016 304.3 46.6016 306 44.8016C307.7 43.0016 310 42.1016 312.9 42.1016C315.1 42.1016 316.8 42.6016 318.2 43.5016C319.5 44.5016 320.5 45.8016 321.1 47.5016C321.7 49.2016 322 51.3016 322 53.6016H306.1L306 50.5016H318.8L317.8 51.5016C317.7 49.4016 317.3 47.9016 316.5 47.0016C315.7 46.0016 314.5 45.6016 312.8 45.6016C311.7 45.6016 310.8 45.8016 310.1 46.3016C309.3 46.7016 308.8 47.5016 308.4 48.6016C308 49.7016 307.8 51.1016 307.8 53.0016C307.8 55.3016 308.3 57.0016 309.4 58.1016C310.4 59.3016 312 59.9016 314 59.9016C314.9 59.9016 315.8 59.8016 316.6 59.7016C317.4 59.6016 318.1 59.3016 318.8 59.1016C319.5 58.8016 320 58.6016 320.5 58.4016V62.0016C319.6 62.4016 318.5 62.7016 317.3 63.0016C316.1 63.3016 314.8 63.4016 313.3 63.4016Z" fill="white"/>
<path d="M326.098 62.8016V44.4016C326.398 44.2016 327.098 43.9016 327.998 43.5016C328.898 43.1016 330.098 42.8016 331.298 42.5016C332.598 42.2016 333.898 42.1016 335.198 42.1016C335.898 42.1016 336.398 42.2016 336.898 42.3016C337.298 42.4016 337.698 42.5016 337.998 42.7016V46.0016C337.398 45.9016 336.698 45.9016 336.098 45.8016C335.398 45.8016 334.798 45.8016 334.098 45.8016C333.398 45.8016 332.798 45.9016 332.098 46.0016C331.498 46.1016 330.898 46.2016 330.298 46.2016V62.7016H326.098V62.8016Z" fill="white"/>
<defs>
<linearGradient id="paint0_linear_2659_361" x1="2.51822" y1="2.31472" x2="79.914" y2="79.2553" gradientUnits="userSpaceOnUse">
<stop stop-color="#62CDF6"/>
<stop offset="1" stop-color="#00C0F3"/>
</linearGradient>
</defs>
</svg>
