<svg width="147" height="36" viewBox="0 0 147 36" fill="none" xmlns="http://www.w3.org/2000/svg">
<circle cx="18" cy="18" r="18" fill="#FBC02D"/>
<path d="M18.0803 25.2924C14.1026 25.2924 10.8673 22.0572 10.8673 18.0795C10.8673 14.1017 14.1026 10.8665 18.0803 10.8665L20.4105 10.8665L21.3831 9.11633L18.0803 9.11633C13.1375 9.11633 9.11721 13.1366 9.11721 18.0795C9.11721 23.0223 13.1375 27.0426 18.0803 27.0426L21.3831 27.0426L20.4105 25.2924L18.0803 25.2924Z" fill="white"/>
<path d="M24.1607 25.2921L25.1332 27.0422L26.8834 27.0422L24.3832 22.5419L22.6331 22.5419L21.633 22.5419L19.8829 22.5419L18.0803 22.5419C15.7051 22.5419 13.7625 20.6768 13.6299 18.3341C13.6249 18.2491 13.6174 18.1641 13.6174 18.0791C13.6174 17.9941 13.6249 17.9091 13.6299 17.8241C13.7625 15.4814 15.7051 13.6163 18.0803 13.6163L19.8829 13.6163L21.633 13.6163L22.6331 13.6163L24.3832 13.6163L25.6333 11.3661L25.9108 10.8661L26.8834 9.11597L25.1332 9.11597L24.1607 10.8661L23.6056 11.8662L22.6056 11.8662L23.1606 10.8661L24.1332 9.11597L22.5881 9.11597L22.3831 9.11597L21.4105 10.8661L20.8554 11.8662L18.0803 11.8662C14.7925 11.8662 12.0698 14.4388 11.8823 17.7241L11.8798 17.7766C11.8748 17.8541 11.8673 17.9591 11.8673 18.0791C11.8673 18.1991 11.8748 18.3041 11.8798 18.3816L11.8823 18.4341C12.0698 21.7193 14.7925 24.292 18.0803 24.292L20.8554 24.292L21.4105 25.2921L22.383 27.0422L22.5881 27.0422L24.1332 27.0422L23.1606 25.2921L22.6056 24.292L23.6056 24.292L24.1607 25.2921Z" fill="white"/>
<path d="M16.0778 17.0728H23.8908L23.0385 18.7774H15.0834L16.0778 17.0728Z" fill="white"/>
<path d="M64.5 26.32V31H44.988V5.8H64.032V10.48H50.784V15.952H62.484V20.488H50.784V26.32H64.5ZM74.9723 10.48V17.14H86.6363V21.82H74.9723V31H69.1403V5.8H88.1843V10.48H74.9723ZM103.329 31.432C99.7285 31.432 96.9205 30.436 94.9045 28.444C92.9125 26.452 91.9165 23.608 91.9165 19.912V5.8H97.7485V19.696C97.7485 24.208 99.6205 26.464 103.365 26.464C105.189 26.464 106.581 25.924 107.541 24.844C108.501 23.74 108.981 22.024 108.981 19.696V5.8H114.741V19.912C114.741 23.608 113.733 26.452 111.717 28.444C109.725 30.436 106.929 31.432 103.329 31.432ZM143.616 5.8V31H138.828L126.264 15.7V31H120.504V5.8H125.328L137.856 21.1V5.8H143.616Z" fill="#FBC02D"/>
</svg>
